<svg xmlns="http://www.w3.org/2000/svg" viewBox="0 0 400 300" width="406" height="306" class="illustration styles_illustrationTablet__1DWOa"><g id="_367_ceo_outline" data-name="#367_ceo_outline"><path d="M90.25,113.18h52.34a0,0,0,0,1,0,0V141a2.34,2.34,0,0,1-2.34,2.34H92.59A2.34,2.34,0,0,1,90.25,141V113.18A0,0,0,0,1,90.25,113.18Z" fill="#fff"></path><path d="M140.24,144.37H92.59A3.35,3.35,0,0,1,89.25,141V113.17a1,1,0,0,1,1-1h52.34a1,1,0,0,1,1,1V141A3.35,3.35,0,0,1,140.24,144.37Zm-49-30.2V141a1.35,1.35,0,0,0,1.34,1.35h47.65a1.35,1.35,0,0,0,1.35-1.35V114.17Z" fill="#093f68"></path><path d="M92.59,107.69h47.65a2.34,2.34,0,0,1,2.34,2.34v3.14a0,0,0,0,1,0,0H90.25a0,0,0,0,1,0,0V110A2.34,2.34,0,0,1,92.59,107.69Z" fill="#68e1fd"></path><path d="M142.59,114.17H90.25a1,1,0,0,1-1-1V110a3.35,3.35,0,0,1,3.34-3.34h47.65a3.35,3.35,0,0,1,3.35,3.34v3.14A1,1,0,0,1,142.59,114.17Zm-51.34-2h50.34V110a1.34,1.34,0,0,0-1.35-1.34H92.59A1.34,1.34,0,0,0,91.25,110Z" fill="#093f68"></path><path d="M106.62,124.73a4.07,4.07,0,0,0-1.48-1.1,4,4,0,0,0-1.44-.27,4.71,4.71,0,0,0-2,.38,4.45,4.45,0,0,0-1.5,1.06,4.77,4.77,0,0,0-1,1.57,5.44,5.44,0,0,0-.34,1.95,6,6,0,0,0,.34,2.06,4.89,4.89,0,0,0,1,1.62,4.5,4.5,0,0,0,1.5,1.08,4.72,4.72,0,0,0,2,.39,3.55,3.55,0,0,0,1.64-.4,4.59,4.59,0,0,0,1.48-1.28l2,1.45a5.57,5.57,0,0,1-2.29,1.88,7.25,7.25,0,0,1-2.89.59,8.06,8.06,0,0,1-3-.52,6.61,6.61,0,0,1-3.83-3.76,7.61,7.61,0,0,1-.55-3,8,8,0,0,1,.55-3,6.88,6.88,0,0,1,1.52-2.32,6.78,6.78,0,0,1,2.31-1.48,8.06,8.06,0,0,1,3-.52,6.83,6.83,0,0,1,2.62.5,6.07,6.07,0,0,1,2.25,1.7Z" fill="#093f68"></path><path d="M110.53,121.47h9.19v2.24H113v3.41h6.37v2.24H113v3.76h7.07v2.24h-9.54Z" fill="#093f68"></path><path d="M121.76,128.47a8,8,0,0,1,.55-3,6.88,6.88,0,0,1,1.52-2.32,6.78,6.78,0,0,1,2.31-1.48,8.06,8.06,0,0,1,3-.52,8.36,8.36,0,0,1,3,.48,6.49,6.49,0,0,1,2.34,1.46,6.86,6.86,0,0,1,1.53,2.31,8.12,8.12,0,0,1,.55,3,7.77,7.77,0,0,1-.55,3,6.91,6.91,0,0,1-1.53,2.3,7,7,0,0,1-2.34,1.5,8.36,8.36,0,0,1-3,.56,8.06,8.06,0,0,1-3-.52,6.61,6.61,0,0,1-3.83-3.76A7.61,7.61,0,0,1,121.76,128.47Zm2.59-.15a6,6,0,0,0,.34,2.06,4.89,4.89,0,0,0,1,1.62,4.5,4.5,0,0,0,1.5,1.08,4.72,4.72,0,0,0,2,.39,4.76,4.76,0,0,0,2-.39,4.35,4.35,0,0,0,1.51-1.08,4.73,4.73,0,0,0,1-1.62,6,6,0,0,0,.35-2.06,5.44,5.44,0,0,0-.35-1.95,4.61,4.61,0,0,0-1-1.57,4.3,4.3,0,0,0-1.51-1.06,4.76,4.76,0,0,0-2-.38,4.71,4.71,0,0,0-2,.38,4.45,4.45,0,0,0-1.5,1.06,4.77,4.77,0,0,0-1,1.57A5.44,5.44,0,0,0,124.35,128.32Z" fill="#093f68"></path><rect x="193.32" y="144.05" width="14.61" height="14.32" fill="#ffc9b0"></rect><path d="M207.93,159.37H193.32a1,1,0,0,1-1-1V144.05a1,1,0,0,1,1-1h14.61a1,1,0,0,1,1,1v14.32A1,1,0,0,1,207.93,159.37Zm-13.61-2h12.61V145.05H194.32Z" fill="#093f68"></path><path d="M196.43,162.37h8.39A40.63,40.63,0,0,1,245.45,203v28.81a0,0,0,0,1,0,0H155.8a0,0,0,0,1,0,0V203a40.63,40.63,0,0,1,40.63-40.63Z" fill="#68e1fd"></path><path d="M245.45,232.81H155.8a1,1,0,0,1-1-1V203a41.68,41.68,0,0,1,41.63-41.63h8.39A41.68,41.68,0,0,1,246.45,203v28.81A1,1,0,0,1,245.45,232.81Zm-88.65-2h87.65V203a39.68,39.68,0,0,0-39.63-39.63h-8.39A39.68,39.68,0,0,0,156.8,203Z" fill="#093f68"></path><path d="M224.79,232.81a1,1,0,0,1-1-1V180.75a1,1,0,0,1,2,0v51.06A1,1,0,0,1,224.79,232.81Z" fill="#093f68"></path><path d="M176.46,232.81a1,1,0,0,1-1-1V180.75a1,1,0,0,1,2,0v51.06A1,1,0,0,1,176.46,232.81Z" fill="#093f68"></path><path d="M195.41,53h10.76A33.43,33.43,0,0,1,239.6,86.43V105a0,0,0,0,1,0,0H162a0,0,0,0,1,0,0V86.43A33.43,33.43,0,0,1,195.41,53Z" fill="#725858"></path><path d="M239.6,106H162a1,1,0,0,1-1-1V86.43A34.47,34.47,0,0,1,195.41,52h10.76A34.47,34.47,0,0,1,240.6,86.43V105A1,1,0,0,1,239.6,106ZM163,104H238.6V86.43A32.47,32.47,0,0,0,206.17,54H195.41A32.47,32.47,0,0,0,163,86.43Z" fill="#093f68"></path><ellipse cx="169.11" cy="107.38" rx="10.81" ry="10.41" fill="#ffc9b0"></ellipse><path d="M169.11,118.79a11.42,11.42,0,1,1,11.81-11.41A11.63,11.63,0,0,1,169.11,118.79Zm0-20.82a9.42,9.42,0,1,0,9.81,9.41A9.63,9.63,0,0,0,169.11,98Z" fill="#093f68"></path><ellipse cx="232.14" cy="107.38" rx="10.81" ry="10.41" fill="#ffc9b0"></ellipse><path d="M232.14,118.79A11.42,11.42,0,1,1,244,107.38,11.63,11.63,0,0,1,232.14,118.79Zm0-20.82a9.42,9.42,0,1,0,9.82,9.41A9.63,9.63,0,0,0,232.14,98Z" fill="#093f68"></path><path d="M234.19,96.4v23.88a33.56,33.56,0,0,1-33.57,33.56h0a33.56,33.56,0,0,1-33.56-33.56V96.4c0-37.43,13.93-11.21,33.56-11.21S234.19,59,234.19,96.4Z" fill="#ffc9b0"></path><path d="M200.62,154.84a34.6,34.6,0,0,1-34.56-34.56V96.4c0-12.21,1.42-18.3,4.76-20.36s7.34.09,12.56,2.71c5.07,2.55,10.82,5.44,17.24,5.44s12.18-2.89,17.25-5.44c5.22-2.62,9.34-4.69,12.56-2.71s4.76,8.15,4.76,20.36v23.88A34.6,34.6,0,0,1,200.62,154.84ZM173.74,77.26a3.52,3.52,0,0,0-1.87.48c-2.56,1.58-3.81,7.69-3.81,18.66v23.88a32.57,32.57,0,0,0,65.13,0V96.4c0-11-1.25-17.08-3.81-18.66-2.27-1.39-5.95.46-10.61,2.8-5,2.52-11.25,5.65-18.15,5.65s-13.13-3.13-18.14-5.65C178.94,78.76,176,77.26,173.74,77.26Z" fill="#093f68"></path><path d="M234.18,111.61v8.67a33.56,33.56,0,1,1-67.12,0v-8.67a33.63,33.63,0,0,0,17.14,29.28c1.75-5.84,8.54-12.66,16.42-12.66s14.67,6.82,16.42,12.66A33.56,33.56,0,0,0,234.18,111.61Z" fill="#725858"></path><path d="M200.62,154.85a34.59,34.59,0,0,1-34.56-34.57v-8.67a1,1,0,0,1,2,0,32.65,32.65,0,0,0,15.6,27.8c2.4-6.07,9.21-12.18,17-12.18s14.57,6.11,17,12.18a32.64,32.64,0,0,0,15.6-27.8,1,1,0,0,1,2,0v8.67A34.61,34.61,0,0,1,200.62,154.85Zm-32.37-31.11a32.56,32.56,0,0,0,64.76-.08,34.6,34.6,0,0,1-15.48,18.1,1,1,0,0,1-.86.05,1,1,0,0,1-.58-.64c-1.73-5.76-8.36-11.94-15.47-11.94s-13.73,6.18-15.46,11.94a1,1,0,0,1-.58.64,1,1,0,0,1-.86-.05,34.83,34.83,0,0,1-15.47-18Z" fill="#093f68"></path><circle cx="184.8" cy="104.82" r="3.19" fill="#093f68"></circle><circle cx="217.69" cy="104.82" r="3.19" fill="#093f68"></circle><path d="M190.13,93.59H177a1.59,1.59,0,1,1,0-3.17h13.14a1.59,1.59,0,1,1,0,3.17Z" fill="#093f68"></path><path d="M224.26,93.59H211.12a1.59,1.59,0,1,1,0-3.17h13.14a1.59,1.59,0,1,1,0,3.17Z" fill="#093f68"></path><path d="M200.62,105s8.38,16.59,4.13,18a7.1,7.1,0,0,1-7.16-1.61" fill="#ffc9b0"></path><path d="M202.47,124.38a8.3,8.3,0,0,1-5.61-2.31,1,1,0,0,1,1.45-1.38,6.09,6.09,0,0,0,6.12,1.36.58.58,0,0,0,.36-.38c1-2.51-2.56-11.3-5.06-16.25a1,1,0,0,1,1.79-.9c.7,1.39,6.82,13.74,5.12,17.9a2.54,2.54,0,0,1-1.57,1.52A7.92,7.92,0,0,1,202.47,124.38Z" fill="#093f68"></path><path d="M200.6,140.46a19.56,19.56,0,0,1-8.11-1.76,1,1,0,1,1,.9-1.79c.07,0,7.92,3.85,15.35-.75a1,1,0,1,1,1.06,1.7A17.26,17.26,0,0,1,200.6,140.46Z" fill="#fff"></path><rect x="188.17" y="156.92" width="24.92" height="6.4" rx="1.98" fill="#68e1fd"></rect><path d="M211.11,164.33h-21a3,3,0,0,1-3-3V158.9a3,3,0,0,1,3-3h21a3,3,0,0,1,3,3v2.45A3,3,0,0,1,211.11,164.33Zm-21-6.41a1,1,0,0,0-1,1v2.45a1,1,0,0,0,1,1h21a1,1,0,0,0,1-1V158.9a1,1,0,0,0-1-1Z" fill="#093f68"></path><circle cx="115.77" cy="195.35" r="30.55" fill="#f56132"></circle><path d="M115.77,226.9a31.55,31.55,0,1,1,31.55-31.55A31.59,31.59,0,0,1,115.77,226.9Zm0-61.1a29.55,29.55,0,1,0,29.55,29.55A29.59,29.59,0,0,0,115.77,165.8Z" fill="#093f68"></path><circle cx="115.77" cy="195.35" r="22.92" fill="#fff"></circle><path d="M115.77,219.27a23.92,23.92,0,1,1,23.92-23.92A24,24,0,0,1,115.77,219.27Zm0-45.84a21.92,21.92,0,1,0,21.92,21.92A21.95,21.95,0,0,0,115.77,173.43Z" fill="#093f68"></path><circle cx="115.77" cy="195.35" r="15.52" fill="#f56132"></circle><path d="M115.77,211.87a16.52,16.52,0,1,1,16.51-16.52A16.54,16.54,0,0,1,115.77,211.87Zm0-31a14.52,14.52,0,1,0,14.51,14.51A14.53,14.53,0,0,0,115.77,180.84Z" fill="#093f68"></path><circle cx="115.77" cy="195.35" r="8.18" fill="#fff"></circle><path d="M115.77,204.53a9.18,9.18,0,1,1,9.18-9.18A9.19,9.19,0,0,1,115.77,204.53Zm0-16.36a7.18,7.18,0,1,0,7.18,7.18A7.19,7.19,0,0,0,115.77,188.17Z" fill="#093f68"></path><polygon points="141.17 169.27 140.54 161.83 147.04 155.41 147.93 162.34 141.17 169.27" fill="#fff"></polygon><path d="M141.17,170.27a1,1,0,0,1-.34-.06,1,1,0,0,1-.66-.86l-.62-7.43a1,1,0,0,1,.29-.8l6.5-6.42a1,1,0,0,1,1-.24,1,1,0,0,1,.67.82l.88,6.93a1,1,0,0,1-.28.83L141.88,170A1,1,0,0,1,141.17,170.27Zm.41-8.05L142,167l4.89-5-.56-4.45Z" fill="#093f68"></path><polygon points="141.43 168.86 148.87 169.49 155.29 162.99 148.36 162.1 141.43 168.86" fill="#fff"></polygon><path d="M148.87,170.49h-.09l-7.43-.63a1,1,0,0,1-.61-1.71l6.93-6.76a1,1,0,0,1,.82-.28l6.93.88a1,1,0,0,1,.58,1.7l-6.42,6.5A1,1,0,0,1,148.87,170.49Zm-5.17-2.44,4.79.4,4.67-4.73-4.44-.56Z" fill="#093f68"></path><path d="M115.77,196.35a1,1,0,0,1-.7-.28,1,1,0,0,1,0-1.42L149.82,159a1,1,0,0,1,1.43,1.4l-34.77,35.64A1,1,0,0,1,115.77,196.35Z" fill="#093f68"></path><path d="M294.26,176.65s7.3-13.54,5.61-15.87-7.62,5.18-9.84,3.7-3.06-7.72-6.77-6.45-3.22,7.3-4.36,6.88-2.94-4.76-5.26-3.6,3.25,15.34,3.25,15.34Z" fill="#70cc40"></path><path d="M294.26,177.65H276.89A1,1,0,0,1,276,177c-2.69-6.85-5.36-15.3-2.76-16.59,2.28-1.15,4.07,1.13,5.15,2.49.11.15.25.33.39.49,0-.14.08-.29.11-.43.48-1.84,1.29-4.92,4.1-5.89,3.16-1.07,4.74,1.87,5.89,4a8,8,0,0,0,1.76,2.55c.5.34,2.71-1.24,3.77-2,2.28-1.62,4.86-3.47,6.32-1.46,1.86,2.56-3.25,12.69-5.54,16.93A1,1,0,0,1,294.26,177.65Zm-16.69-2h16.1c3.58-6.74,6-13.21,5.39-14.29-.52-.23-2.56,1.22-3.54,1.92-2.26,1.61-4.4,3.13-6,2a8.85,8.85,0,0,1-2.41-3.27c-1.31-2.45-2.08-3.56-3.48-3.07-1.8.61-2.38,2.86-2.81,4.5-.31,1.18-.51,2-1.19,2.3a1.26,1.26,0,0,1-1,.06,4.88,4.88,0,0,1-1.79-1.69c-1-1.3-1.86-2.26-2.61-2C273.6,163.28,275.13,169.3,277.57,175.65Z" fill="#093f68"></path><path d="M281,182.58h10.08a23.73,23.73,0,0,1,23.73,23.73v15.92a9.58,9.58,0,0,1-9.58,9.58H266.82a9.58,9.58,0,0,1-9.58-9.58V206.31A23.73,23.73,0,0,1,281,182.58Z" fill="#70cc40"></path><path d="M305.2,232.81H266.82a10.6,10.6,0,0,1-10.58-10.59V206.31A24.75,24.75,0,0,1,281,181.58h10.08a24.76,24.76,0,0,1,24.74,24.73v15.91A10.6,10.6,0,0,1,305.2,232.81ZM281,183.58a22.75,22.75,0,0,0-22.73,22.73v15.91a8.59,8.59,0,0,0,8.58,8.59H305.2a8.6,8.6,0,0,0,8.59-8.59V206.31a22.76,22.76,0,0,0-22.74-22.73Z" fill="#093f68"></path><rect x="276.89" y="176.65" width="18.26" height="6.06" fill="#093f68"></rect><path d="M295.14,183.71H276.89a1,1,0,0,1-1-1v-6.06a1,1,0,0,1,1-1h18.25a1,1,0,0,1,1,1v6.06A1,1,0,0,1,295.14,183.71Zm-17.25-2h16.25v-4.06H277.89Z" fill="#093f68"></path><path d="M283.43,225.05v-2.83c-1-.28-2-.49-3-.82a8.72,8.72,0,0,1-4.6-3.45,8.5,8.5,0,0,1-1.33-4.79H280a4.37,4.37,0,0,0,3.38,4.09v-7.49c-1.11-.33-2.21-.63-3.31-1a7.82,7.82,0,0,1-3.21-1.83,6.38,6.38,0,0,1-1.78-3.48,8.86,8.86,0,0,1,.35-4.81,8,8,0,0,1,4.84-4.8,23.78,23.78,0,0,1,2.79-.72l.34-.07v-3.74h5.16v.36c0,1.07,0,2.14,0,3.21,0,.27.09.35.34.4a10.94,10.94,0,0,1,4.81,2.25,7.81,7.81,0,0,1,2.74,4.8c.09.51.13,1,.2,1.57h-5.62a3.91,3.91,0,0,0-2.43-3.56v7c.19,0,.39.1.61.14a20.7,20.7,0,0,1,4.4,1.41,6.39,6.39,0,0,1,3.81,5.32,8.31,8.31,0,0,1-1.45,6.09,8.46,8.46,0,0,1-4.17,3.09c-1,.35-2.11.59-3.23.9v2.74Zm5.18-14.22v6.51a4.68,4.68,0,0,0,2.28-1c1.2-1,1.63-3.43-.13-4.51A19.4,19.4,0,0,0,288.61,210.83Zm-5.2-6.66v-6.29a18.08,18.08,0,0,0-2,1,2.72,2.72,0,0,0,.17,4.54C282.17,203.71,282.78,203.91,283.41,204.17Z" fill="#093f68"></path><ellipse cx="283.29" cy="140.14" rx="5.29" ry="4.04" fill="#093f68"></ellipse><path d="M283.29,145.18c-3.47,0-6.29-2.26-6.29-5s2.82-5,6.29-5,6.29,2.26,6.29,5S286.76,145.18,283.29,145.18Zm0-8.08c-2.33,0-4.29,1.39-4.29,3s2,3,4.29,3,4.29-1.39,4.29-3S285.61,137.1,283.29,137.1Z" fill="#093f68"></path><path d="M299,112.24a15.67,15.67,0,1,0-26.77,11.07,15.39,15.39,0,0,1,4,7.42l.13.54h13.92l.15-.65a16.24,16.24,0,0,1,4.2-7.54A15.59,15.59,0,0,0,299,112.24Z" fill="#ffbc0e"></path><path d="M290.25,132.27H276.33a1,1,0,0,1-1-.77l-.12-.54a14.42,14.42,0,0,0-3.75-6.94A16.68,16.68,0,0,1,282.22,95.6a16.55,16.55,0,0,1,12.48,4.49,16.68,16.68,0,0,1,.63,23.69,15.3,15.3,0,0,0-4,7.07l-.15.65A1,1,0,0,1,290.25,132.27Zm-13.13-2h12.33a17.43,17.43,0,0,1,4.43-7.88,14.67,14.67,0,1,0-21,.21A16.33,16.33,0,0,1,277.12,130.27Z" fill="#093f68"></path><rect x="275.32" y="131.27" width="15.93" height="3.22" rx="1.45" fill="#fff"></rect><path d="M289.81,135.49h-13a2.45,2.45,0,0,1-2.45-2.45v-.32a2.45,2.45,0,0,1,2.45-2.45h13a2.45,2.45,0,0,1,2.44,2.45V133A2.45,2.45,0,0,1,289.81,135.49Zm-13-3.22a.45.45,0,0,0-.45.45V133a.45.45,0,0,0,.45.45h13a.45.45,0,0,0,.44-.45v-.32a.45.45,0,0,0-.44-.45Z" fill="#093f68"></path><rect x="275.32" y="134.49" width="15.93" height="3.22" rx="1.45" fill="#fff"></rect><path d="M289.81,138.71h-13a2.45,2.45,0,0,1-2.45-2.45v-.32a2.45,2.45,0,0,1,2.45-2.45h13a2.45,2.45,0,0,1,2.44,2.45v.32A2.45,2.45,0,0,1,289.81,138.71Zm-13-3.22a.45.45,0,0,0-.45.45v.32a.45.45,0,0,0,.45.45h13a.45.45,0,0,0,.44-.45v-.32a.45.45,0,0,0-.44-.45Z" fill="#093f68"></path><rect x="275.32" y="137.71" width="15.93" height="3.22" rx="1.45" fill="#fff"></rect><path d="M289.81,141.92h-13a2.45,2.45,0,0,1-2.45-2.44v-.33a2.45,2.45,0,0,1,2.45-2.44h13a2.44,2.44,0,0,1,2.44,2.44v.33A2.44,2.44,0,0,1,289.81,141.92Zm-13-3.21a.45.45,0,0,0-.45.44v.33a.45.45,0,0,0,.45.44h13a.44.44,0,0,0,.44-.44v-.33a.44.44,0,0,0-.44-.44Z" fill="#093f68"></path><path d="M280.63,132.27a1,1,0,0,1-1-.86L277,111.86a1,1,0,0,1,.56-1,1,1,0,0,1,1.16.23l4.77,5.19,4.86-6.49a1,1,0,0,1,1.17-.32,1,1,0,0,1,.62,1l-2.41,20.92a1,1,0,0,1-2-.23l2-17.25-3.36,4.49a1,1,0,0,1-.75.4,1,1,0,0,1-.79-.32l-3.43-3.73,2.21,16.39a1,1,0,0,1-.85,1.12Z" fill="#093f68"></path><path d="M257.18,125.11a1,1,0,0,1-.39-1.92l7.12-3a1,1,0,0,1,.78,1.84l-7.13,3A1,1,0,0,1,257.18,125.11Z" fill="#dfeaef"></path><path d="M262.89,104a1.11,1.11,0,0,1-.46-.11l-6.69-3.52a1,1,0,1,1,.93-1.77l6.69,3.52a1,1,0,0,1-.47,1.88Z" fill="#dfeaef"></path><path d="M308.78,125.11a1.07,1.07,0,0,1-.39-.07l-7.13-3a1,1,0,1,1,.78-1.84l7.13,3a1,1,0,0,1,.53,1.31A1,1,0,0,1,308.78,125.11Z" fill="#dfeaef"></path><path d="M303.06,104a1,1,0,0,1-.47-1.88l6.69-3.52a1,1,0,0,1,.93,1.77l-6.69,3.52A1,1,0,0,1,303.06,104Z" fill="#dfeaef"></path><path d="M283.58,93.43a1,1,0,0,1-1-1V85.1a1,1,0,1,1,2,0v7.33A1,1,0,0,1,283.58,93.43Z" fill="#dfeaef"></path></g></svg>