<svg id="Layer_2" data-name="Layer 2" xmlns="http://www.w3.org/2000/svg" xmlns:xlink="http://www.w3.org/1999/xlink" viewBox="0 0 400 300" width="406" height="306" class="illustration styles_illustrationTablet__1DWOa"><defs><linearGradient id="linear-gradient" x1="148.43" y1="288.74" x2="195.74" y2="255.44" gradientUnits="userSpaceOnUse"><stop offset="0" stop-color="#fff" stop-opacity="0"></stop><stop offset="0.98" stop-color="#0800bf"></stop></linearGradient><linearGradient id="linear-gradient-2" x1="238.6" y1="225.67" x2="287.65" y2="191.14" xlink:href="#linear-gradient"></linearGradient><linearGradient id="linear-gradient-3" x1="66.94" y1="234.24" x2="128.88" y2="190.63" xlink:href="#linear-gradient"></linearGradient></defs><title>PP</title><path d="M233.75,95.64l136.38,78.59a5.54,5.54,0,0,1,0,9.6L177.74,294.24a15.49,15.49,0,0,1-15.12.17L30,222.16a5.54,5.54,0,0,1-.12-9.65L235.63,93.43" fill="#cb9bea"></path><polygon points="208.28 254.62 153.04 289.19 143.67 284.08 203.72 249.04 208.28 254.62" opacity="0.32" fill="url(#linear-gradient)"></polygon><path d="M302.07,194.64c-6.72-5.41-14.34-9.6-21.06-15L226,213.94l19.34,22.35,61.17-37.75C305,197.19,303.61,195.88,302.07,194.64Z" opacity="0.32" fill="url(#linear-gradient-2)"></path><path d="M168.06,144.34,49.92,217.94l24.42,28.22,128.4-79.25C189.48,157.93,179.54,155.44,168.06,144.34Z" opacity="0.32" fill="url(#linear-gradient-3)"></path><path d="M181.33,152.3l18.94,9.12a4.36,4.36,0,0,1,.31,7.7l-44.91,26.2a4.36,4.36,0,0,1-5.87-1.41l-10.91-17" fill="#56403d"></path><path d="M87.06,103.22,238.17,16.17a6.82,6.82,0,0,1,10.22,5.91v90.56a5.67,5.67,0,0,1-2.83,4.91l-161.07,93A3.66,3.66,0,0,1,79,207.34V117.16A16.09,16.09,0,0,1,87.06,103.22Z" fill="#68e1fd"></path><path d="M238.15,23,91.65,107.31a10.27,10.27,0,0,0-5.15,8.9V184.1a3.71,3.71,0,0,0,5.56,3.22l149.42-85.75a3.66,3.66,0,0,0,1.84-3.17V26A3.44,3.44,0,0,0,238.15,23Z" fill="#fff"></path><ellipse cx="177.19" cy="147.47" rx="3.64" ry="3.19" transform="translate(-1.13 293.57) rotate(-79.1)" fill="#ab643c"></ellipse><ellipse cx="97.61" cy="109.39" rx="1.6" ry="1.73" fill="#659fe4"></ellipse><ellipse cx="102.7" cy="106.86" rx="1.6" ry="1.73" fill="#c5e9ff"></ellipse><path d="M181.62,136.29l27.47,116.06c.66,2.79-3.64,4-4.3,1.19L177.32,137.47c-.66-2.79,3.64-4,4.3-1.19Z" fill="#f2f2f2"></path><path d="M155.84,150l27.47,116.06c.66,2.79-3.64,4-4.3,1.19L151.53,151.21c-.66-2.79,3.64-4,4.3-1.19Z" fill="#f2f2f2"></path><path d="M184.48,154.59,158.7,169c-2.51,1.4-4.76-2.45-2.25-3.85l25.77-14.4c2.51-1.4,4.76,2.45,2.25,3.85Z" fill="#f2f2f2"></path><path d="M187.17,170.73l-24.72,13.81c-2.51,1.4-4.76-2.45-2.25-3.85l24.72-13.81c2.51-1.4,4.76,2.45,2.25,3.85Z" fill="#f2f2f2"></path><path d="M190.16,183.8l-24.69,13.79c-2.51,1.4-4.76-2.45-2.25-3.85l24.69-13.79c2.51-1.4,4.76,2.45,2.25,3.85Z" fill="#f2f2f2"></path><path d="M194,197.85l-24.46,13.67c-2.51,1.4-4.76-2.45-2.25-3.85L191.79,194c2.51-1.4,4.76,2.45,2.25,3.85Z" fill="#f2f2f2"></path><path d="M197.41,210.71l-24.51,13.69c-2.51,1.4-4.76-2.45-2.25-3.85l24.51-13.69c2.51-1.4,4.76,2.45,2.25,3.85Z" fill="#f2f2f2"></path><path d="M201.15,225.67l-25.77,14.4c-2.51,1.4-4.76-2.45-2.25-3.85l25.77-14.4c2.51-1.4,4.76,2.45,2.25,3.85Z" fill="#f2f2f2"></path><path d="M274.64,128.56a10.49,10.49,0,0,0,7.79,2.66c4.61-.46,0-4.19,0-4.19" fill="#bc5500"></path><path d="M270.26,117s2.94,2.51,3.44,2.27.94-3,.94-3l-.9-1" fill="#b7977e"></path><polygon points="287.67 102.35 284.86 101.11 281.64 104.26 287.67 102.35" fill="#b7977e"></polygon><path d="M286,114.31l-11.37,1.9a.43.43,0,0,1,0,.09v.12a2.81,2.81,0,0,1,.06.48h.1a.5.5,0,0,1,.45.59.52.52,0,0,1-.31.87,6,6,0,0,1-2.56-.28.46.46,0,0,1-.3-.3l-.51-.15a.5.5,0,0,1-.69,0,.42.42,0,0,1-.4-.34l0-.06a.47.47,0,0,1-.08-.17l.06.08a.49.49,0,0,1-.11-.24h-.05s0,13,8.75,13C288.46,130,286,114.31,286,114.31Z" fill="#bc5500"></path><polygon points="270.26 116.95 268.88 103.41 284.86 101.11 286.01 114.31 270.26 116.95" fill="#b7977e"></polygon><path d="M268.29,152l-.08-.63A2.74,2.74,0,0,0,268.29,152Z" fill="#06489e"></path><path d="M317.69,151.37l-.1.71A2.76,2.76,0,0,0,317.69,151.37Z" fill="#06489e"></path><path d="M293,143.28c-13.66,0-24.74,3.62-24.74,8.09h49.48C317.69,146.91,306.61,143.28,293,143.28Z" fill="#68e1fd"></path><path d="M293,159.46c12.93,0,23.54-3.24,24.64-7.38l.1-.71H268.21l.08.63C269.27,156.17,279.93,159.46,293,159.46Z" fill="#68e1fd"></path><path d="M293,143.28c-13.66,0-24.74,3.62-24.74,8.09l.08.63c1,4.17,11.64,7.46,24.66,7.46s23.54-3.24,24.64-7.38l.1-.71C317.69,146.91,306.61,143.28,293,143.28Z" fill="#173743" opacity="0.58"></path><path d="M305.29,118.6s13.79,5.84,14.5,5.23a18.39,18.39,0,0,1,2.42-1.51v-2.85L307,113.76l-1.71,1.11Z" fill="#653200"></path><polygon points="305.29 114.87 304.89 105.42 308.71 104.1 326.73 111.32 322.2 119.47 319.38 120.74 305.29 114.87" fill="#d9e021"></polygon><path d="M310.7,120l-4.25,45.3h2.87s6-44.94,5.33-44.73" fill="#653200"></path><polygon points="304.89 105.42 320.71 112.53 319.38 120.74 305.29 114.87 304.89 105.42" fill="#bfbf10"></polygon><polygon points="307.28 106.5 307.28 113.08 308.23 106.92 307.28 106.5" fill="#77740e"></polygon><polygon points="312.11 108.67 311.78 114.04 312.8 108.97 312.11 108.67" fill="#77740e"></polygon><polygon points="316.41 110.6 316.41 115.5 317.33 111.01 316.41 110.6" fill="#77740e"></polygon><polyline points="283.45 162.29 279.56 127.86 283.45 127.32 288.05 163.52" fill="#ed7306"></polyline><path d="M273.07,118.19s0,13,8.75,13c9.45,0,7-15.67,7-15.67Z" fill="#ed7306"></path><polygon points="273.07 118.19 271.69 104.64 287.67 102.35 288.82 115.55 273.07 118.19" fill="#dbc2ad"></polygon><path d="M273.07,118.19,270.26,117s.68,3.65,1.4,4.44S273.07,118.19,273.07,118.19Z" fill="#bc5500"></path><path d="M293,159.46c-13,0-23.68-3.29-24.66-7.46.65,5,5.09,39.32,5.26,39.52,0,0,2.27,9.68,19.4,9.67,14.57,0,18.73-7.32,18.73-7.32l5.91-41.79C316.49,156.21,305.88,159.46,293,159.46Z" fill="#68e1fd"></path><polygon points="284.48 102.81 285.86 111.89 285.31 102.69 284.48 102.81" fill="#b7977e"></polygon><polygon points="281.08 103.29 281.64 114.64 278.92 103.61 281.08 103.29" fill="#b7977e"></polygon><polygon points="275.47 104.1 275.98 113.05 274.35 104.26 275.47 104.1" fill="#b7977e"></polygon><path d="M156.22,116s-4.42,1.68-8,.85-2.42-8.15-.57-9.39,1.94-5.59,1.94-5.59-.88-2.51.17-2.78,2.91-.44,3.17.35,1.59,13.22,1.59,13.22" fill="#173743"></path><path d="M146.29,109.19a3.52,3.52,0,0,0-.13,2.18l1.62.36s-1,1,.21,2.26c0,0-.14-1.51.48-1.85s.47,1.37.47,1.37,3,.94,3.29-.38V110.3Z" fill="#ed7306"></path><path d="M159.31,79.42V114s.93,3.07,2.15,2,.35-7.59,1.92-6.15.7,6.49,2.09,4.75,1-6.79,2.06-6.27-1.34,12.2,1.35,10.1,1.54-9.74,2.12-11.05,1.27,5.67,2.84,4.18,1.33-10.65,2.12-6.43,1.76,9,2.41,5.86S177,68.82,177,68.82Z" fill="#68e1fd" opacity="0.62"></path><path d="M174.88,86.48c2.71.31,6,5,6.1,6.22l-2.18-.45-.45-.28A23.93,23.93,0,0,0,174.88,86.48Z" fill="#fbb5ad"></path><path d="M159,80.32l2.43,1a.82.82,0,0,0,.73,0l17.49-10a.82.82,0,0,0-.11-1.48l-2.5-1a.82.82,0,0,0-.71.05l-17.42,10A.82.82,0,0,0,159,80.32Z" fill="#173743"></path><polyline points="169.27 76.13 180.99 101.19 182.63 100.51 170.63 74.87" fill="#173743"></polyline><path d="M147.24,105.89a1.21,1.21,0,0,1,.12-.24,1.77,1.77,0,0,1-.55-1.43,1.25,1.25,0,0,1,.49-.86.92.92,0,0,1,.87-1.5c1.33.27,2.21,2,2.93,3.05.53.77,1,1.55,1.49,2.36.08-1.15.24-2.31.33-3.4s1.77-1.15,1.76,0a16.43,16.43,0,0,0,.53,5.15,1.66,1.66,0,0,1,.47.34,42,42,0,0,0,18.06,11.17,1.65,1.65,0,0,1-.18,3.18,1.62,1.62,0,0,1-1.17,1.45,1.84,1.84,0,0,1-.87,1.23l1.16.51c1.89.79,1.06,3.92-.86,3.11a46.27,46.27,0,0,1-18.4-13.88c-.56-.53-1.11-1.07-1.65-1.62-.85-.86-5-5-3.94-6.75C147.47,107.14,146.94,106.68,147.24,105.89Z" fill="#fbb5ad"></path><path d="M175.44,90.08a1.12,1.12,0,0,1,.34-.16l.13-.11c.75-.58,1.92.17,2.6.55A14.44,14.44,0,0,1,181,92a4.32,4.32,0,0,1,.73,1.58c.28.69.58,1.37.9,2a37.76,37.76,0,0,0,2.26,4.07,38.75,38.75,0,0,0,5.75,7c1,1-.54,2.52-1.55,1.54l-.73-.72a.93.93,0,0,1-1,0,4.13,4.13,0,0,1-.51-.41l-.24-.2a1.08,1.08,0,0,1-1.77.38l-.75-.77a1,1,0,0,1-.54-.5s-.11,1.5-.14,1.45c-1.19-1.26-2.6-4.74-3.79-6.8a.44.44,0,0,0-.07-.28c-.93-1.49-.8-2.38-.91-4.08a16.08,16.08,0,0,0-.26-2.93l-1.95-1.5c-.47-.36-1-.9-.88-1.43A1.13,1.13,0,0,1,175.44,90.08Z" fill="#fbb5ad"></path><path d="M168.21,117.5c6.92,2,8.1,1.25,11.38,1.15s6.75-4.69,6.75-4.69.83-10.26,6.93-2.23c4.56,6,6.31,23.35,6.9,31.75-2.27,1.81-5.29,2.48-8.12,2.9a34.88,34.88,0,0,1-5.67.47,8.44,8.44,0,0,1-3.39-.74l-3.24-15.05a23.3,23.3,0,0,1-14.65-4.2Z" fill="#fe9881"></path><path d="M183.05,105.18s-4.45,8.54-.06,10.91,7.85-1.58,8.21-2.6S191.51,104.55,183.05,105.18Z" fill="#fbb5ad"></path><path d="M182.72,103.89c2.26-1.63,5-1.67,7.65-1.07a11.19,11.19,0,0,1,5.92,3.1,3.79,3.79,0,0,1,1.92-.65,3.94,3.94,0,0,1,3.94,2.44,3.41,3.41,0,0,1-1.34,4,4.3,4.3,0,0,1-3.26.3l0,.2c-.15,1.61,1.38,2.43,2,3.79a3.19,3.19,0,0,1,.24,2c-.15.67-.85,1.4-.83,2.08a3.21,3.21,0,0,0,.72,1.43,7.12,7.12,0,0,1,.77,1.49c-3.2,1.72-7.2,1.71-10.67,1a18,18,0,0,1-10-5.38,2.66,2.66,0,0,1,.67-.92,9.93,9.93,0,0,1,1.91-1c.95-.55,0-2.2,0-3.1.06-1.53,1.18-2.17,2.44-2.7.91-.38,1-.94,1-1.88a3.53,3.53,0,0,0-.44-2.13,1.19,1.19,0,0,1-.79-.17,6.55,6.55,0,0,0-1.52-.67,1.08,1.08,0,0,1-.66-1.35A.89.89,0,0,1,182.72,103.89Z" fill="#56403d"></path><path d="M186.1,107.31a17.21,17.21,0,0,1-4.16-1.47c0-.14-.42-5.45,9-3.61s5,13.13,5,13.13" fill="#56403d"></path><path d="M196.39,224.72c.87-.3,2.13-.53,2.74-1.3a5.07,5.07,0,0,0,.57-3q0-1.43,0-2.86a.47.47,0,0,0,.18-.35,17.17,17.17,0,0,0,0-2.33l3.92-.38s1.74,6.7,1.63,7.46-3.84,5.85-5.73,6.19-7.16-1.31-7.6-2l0-.07C193.51,225.67,195,225.22,196.39,224.72Z" fill="#fbb5ad"></path><path d="M169.32,210.76c1.29-.25,6.64.61,6.64.61s.75-4.36.65-4.58l5.57.39s.7,8.11.7,9.17c0,2-2.43,2.58-3,2.5a9.57,9.57,0,0,1-1.12-.46,16.17,16.17,0,0,0,.32-3.07c0-.47-.13-.8-.57-1-.82-.32-2.35.13-3.19.29-1,.19-2,.42-3,.6-2.19-1.16-4-2.27-4.2-2.72C167.79,211.41,167.33,211.15,169.32,210.76Z" fill="#fbb5ad"></path><path d="M167.45,211.11l.13-.15c.43-.41,1.55-.38,2.07-.39a26.3,26.3,0,0,1,6.3.81s-5-.69-5.25.22a2.4,2.4,0,0,0,.51,2.08c2.11,1.87,5.4-.19,7.46-1.08l3.81-1.64.24,3.1s.26,3.83,0,4.27-2.52,1.62-3,1.39-2-1.13-2-1.13l.3-3.75s-3.15,1.36-4.64,1C172.31,215.52,166.14,212.87,167.45,211.11Z" fill="#56403d"></path><path d="M201.79,222.1s-2,6.41-2.79,6.82-8.62-2.1-7.44-3.59c.75-1,5.5-.95,5.92-1.07,0,0-2.5.82-2.5,1.22s3.15,1.85,3.31,1.56,3.59-5.91,3.59-5.91L205.1,220l2.65,5.89-2.25,1s-.69,1.79-.92,1.79a26,26,0,0,1-2.06-3.3,8.7,8.7,0,0,1-.78,2.34c-.32.23-2.94,2.38-4.13.73l2.2-2.48" fill="#56403d"></path><path d="M185.42,209.37c-5,.94-10.2.08-13.92-3.3-.08-8.25-.85-15.7-.61-23.94.39-13.46,2.35-26.66,11.8-37.16l17.19-2.64c7,13.27,8.4,74,8.4,74s-8.69,5.61-15.42,2.91l-2.58-50.6s-4.55,5.39-5.38,8.41C184.3,179.22,185.53,199.21,185.42,209.37Z" fill="#999a1c"></path><path d="M135.09,91.64s2,8.4-6.87,10.27c0,0,7.93.85,7.77,8.67,0,0-1-7.45,6.64-8.67C142.63,101.91,135,101.11,135.09,91.64Z" fill="#f9ab2f"></path><path d="M116.53,116.46s2.63,11.17-9.15,13.67c0,0,10.56,1.12,10.35,11.54,0,0-1.31-9.92,8.83-11.54C126.56,130.13,116.36,129.06,116.53,116.46Z" fill="#f9ab2f"></path><path d="M209.52,58.63s2,8.28-6.78,10.13c0,0,7.82.83,7.67,8.55,0,0-1-7.35,6.55-8.55C217,68.77,209.4,68,209.52,58.63Z" fill="#f9ab2f"></path></svg>