<svg xmlns="http://www.w3.org/2000/svg" viewBox="0 0 400 300" width="406" height="306" class="illustration styles_illustrationTablet__1DWOa"><g id="_312_data_analytics_flatline" data-name="#312_data_analytics_flatline"><path d="M169.07,230.07c-36.45,0-64.37-.14-65.2-.56a.5.5,0,0,1,.41-.91c3.67.85,155.28.35,235,0a.5.5,0,0,1,.51.49.51.51,0,0,1-.5.51C324.08,229.64,233.34,230.07,169.07,230.07Z" fill="#d1d3d4"></path><rect x="132.94" y="50.24" width="189.63" height="143.53" transform="translate(455.52 244) rotate(-180)" fill="#fff"></rect><path d="M322.58,194.26H132.94a.5.5,0,0,1-.5-.5V50.24a.5.5,0,0,1,.5-.5H322.58a.5.5,0,0,1,.5.5V193.76A.5.5,0,0,1,322.58,194.26Zm-189.14-1H322.08V50.74H133.44Z" fill="#231f20"></path><rect x="173.24" y="123.91" width="10.34" height="50.72" fill="#68e1fd"></rect><rect x="191.07" y="141.13" width="10.34" height="33.5" fill="#e6e7e8"></rect><rect x="208.91" y="131.33" width="10.34" height="43.3" fill="#e6e7e8"></rect><path d="M227.28,174.74H165.9a.5.5,0,0,1-.5-.5.5.5,0,0,1,.5-.5h61.38a.5.5,0,0,1,.5.5A.51.51,0,0,1,227.28,174.74Z" fill="#e6e7e8"></path><polygon points="114.27 199.06 148.4 118.78 219.73 138.01 177.23 233.6 114.27 199.06" fill="#fff"></polygon><path d="M177.23,234.1A.5.5,0,0,1,177,234L114,199.5a.5.5,0,0,1-.22-.63l34.13-80.29a.5.5,0,0,1,.59-.28l71.33,19.23a.47.47,0,0,1,.32.26.48.48,0,0,1,0,.42l-42.5,95.59a.5.5,0,0,1-.3.27A.45.45,0,0,1,177.23,234.1Zm-62.32-35.26L177,232.9l42-94.56-70.35-19Z" fill="#231f20"></path><path d="M132.85,203.88a.41.41,0,0,1-.21,0,.49.49,0,0,1-.24-.66l34.15-74.44a.5.5,0,0,1,.66-.25.51.51,0,0,1,.25.67l-34.15,74.44A.52.52,0,0,1,132.85,203.88Z" fill="#e6e7e8"></path><path d="M202.71,157.33l-.15,0-55.5-17a.5.5,0,0,1-.34-.63.51.51,0,0,1,.63-.33l55.5,17a.5.5,0,0,1,.34.62A.51.51,0,0,1,202.71,157.33Z" fill="#e6e7e8"></path><path d="M174.12,223.78a.39.39,0,0,1-.18,0l-55-21.53a.48.48,0,0,1-.28-.28.53.53,0,0,1,0-.39l34.69-76.63a.5.5,0,0,1,.6-.27l55.56,16.13a.49.49,0,0,1,.31.27.53.53,0,0,1,0,.41l-35.29,82A.52.52,0,0,1,174.12,223.78Zm-54.29-22.31,54,21.17,34.88-81.07-54.61-15.85Z" fill="#e6e7e8"></path><path d="M131.19,143.88s3.28-12.88,8.58-15.07,14.64-2.86,12-.28-10.07,4.08-10.07,4.08,2.94,16.61-3.82,18.44S131.19,143.88,131.19,143.88Z" fill="#fff"></path><path d="M136.19,151.8a4.55,4.55,0,0,1-2.83-.92c-2.67-2.06-2.67-6.8-2.67-7a.49.49,0,0,1,0-.12c.14-.53,3.41-13.14,8.88-15.4,4.06-1.68,11.87-2.85,13-1.14.18.28.37.87-.45,1.68-2.34,2.3-8.14,3.73-9.85,4.11.45,2.83,2.27,16.76-4.26,18.54A7.27,7.27,0,0,1,136.19,151.8Zm-4.5-7.86c0,.53.15,4.5,2.29,6.15a4.15,4.15,0,0,0,3.78.48c6.24-1.69,3.49-17.71,3.46-17.87a.51.51,0,0,1,.39-.58c.08,0,7.33-1.5,9.82-3.94.3-.3.31-.43.31-.44-.44-.77-7-.44-11.78,1.54S131.94,143,131.69,143.94Z" fill="#231f20"></path><path d="M90.87,118.41c-6.56-1.59-10.38-9-12.4-14.86-2.29-6.71-4.86-12.17-2.5-19.42.54-1.67,1.46-3.43,3.11-4a3.3,3.3,0,0,0,1.16-.47,2.41,2.41,0,0,0,.56-1.06c3.43-9.44,14.5-10.29,22.89-9.43,4.86.5,11.23,2.36,13,7.23,3.24,9,1.45,19-3.19,27.16C109.14,111.23,100.68,120.79,90.87,118.41Z" fill="#fff"></path><path d="M93.89,119.27a13.66,13.66,0,0,1-3.14-.37c-6.82-1.66-10.7-9.17-12.75-15.18-.26-.77-.53-1.53-.79-2.27C75.14,95.61,73.35,90.55,75.5,84c.76-2.34,1.91-3.79,3.42-4.3l.33-.1a2,2,0,0,0,.66-.28,1.82,1.82,0,0,0,.39-.75l0-.1c3.52-9.69,14.67-10.65,23.41-9.76,3.33.35,11.31,1.77,13.41,7.56,3.07,8.52,1.9,18.57-3.22,27.58C109.48,111.63,102.11,119.27,93.89,119.27Zm4.94-49.85c-7.26,0-14.87,2-17.56,9.36l0,.1a2.11,2.11,0,0,1-1.72,1.65c-.09,0-.19,0-.28.09-1.19.4-2.13,1.63-2.79,3.66-2,6.26-.31,11.16,1.7,16.84l.8,2.27c2,5.78,5.66,13,12,14.53,8.91,2.17,17.25-6.12,22.07-14.6,5-8.75,6.12-18.5,3.15-26.74-1.9-5.26-9.43-6.58-12.58-6.9A46.65,46.65,0,0,0,98.83,69.42Z" fill="#231f20"></path><path d="M119.16,98.38s7.38,8.27,6.4,10.35-5.32,1.43-5.32,1.43" fill="#fff"></path><path d="M121.72,110.75a11.66,11.66,0,0,1-1.55-.1.5.5,0,0,1,.15-1c1.1.17,4.12.28,4.79-1.14.52-1.1-2.88-6-6.32-9.81a.5.5,0,0,1,0-.71.5.5,0,0,1,.7,0c1.27,1.43,7.55,8.64,6.49,10.9C125.3,110.47,123.2,110.75,121.72,110.75Z" fill="#231f20"></path><path d="M116.11,86.47c4.31,2.58,4.16,9.39,4.75,13.72q1.26,9.12,2.09,18.31c.35,3.88-9.62,5.41-11.54,4.51l3.77,15-22.13-5-1.89-17.67s6.6-.91,9.36-9.33.84-20.46.84-20.46S111.91,83.94,116.11,86.47Z" fill="#fff"></path><path d="M115.18,138.51h-.11l-22.13-5a.51.51,0,0,1-.39-.44l-1.89-17.67a.5.5,0,0,1,.43-.55c.26,0,6.33-1,9-9,2.69-8.21.85-20.11.83-20.23a.51.51,0,0,1,.09-.38.52.52,0,0,1,.33-.2c.43-.06,10.77-1.6,15.08,1h0c3.8,2.28,4.31,7.51,4.73,11.72.08.84.16,1.63.26,2.36.83,6.06,1.53,12.23,2.09,18.33a3.28,3.28,0,0,1-1.71,3c-2.48,1.75-7.32,2.54-9.65,2.24l3.57,14.2a.51.51,0,0,1-.13.47A.47.47,0,0,1,115.18,138.51ZM93.5,132.6l21,4.74-3.57-14.21a.5.5,0,0,1,.7-.57c1.25.58,6.89-.06,9.55-1.92a2.39,2.39,0,0,0,1.28-2.1c-.55-6.08-1.25-12.24-2.08-18.29-.11-.73-.19-1.54-.27-2.39-.39-4-.88-9-4.25-11h0c-3.49-2.1-11.81-1.2-13.92-.93.33,2.41,1.54,12.64-.94,20.2-2.42,7.39-7.67,9.18-9.29,9.57Z" fill="#231f20"></path><path d="M122.14,114s-6,.33-7.87-7.7" fill="#fff"></path><path d="M122.09,114.48c-.75,0-6.48-.26-8.3-8.08a.5.5,0,1,1,1-.23c1.75,7.53,7.29,7.32,7.36,7.31a.5.5,0,0,1,.52.48.49.49,0,0,1-.47.52Z" fill="#231f20"></path><path d="M108.07,104a8.4,8.4,0,0,0-2.31-3.92,12.26,12.26,0,0,0-2.6-2.44,4,4,0,0,0-3.43-.52,3.75,3.75,0,0,0-2.11,2.23,7.16,7.16,0,0,0-.32,3.12,13.18,13.18,0,0,0,7.7,10.7l-.39-.31" fill="#fff"></path><path d="M105,113.63a.45.45,0,0,1-.2,0,13.77,13.77,0,0,1-8-11.11,7.51,7.51,0,0,1,.36-3.35,4.19,4.19,0,0,1,2.4-2.52,4.5,4.5,0,0,1,3.86.56,13,13,0,0,1,2.72,2.54,8.82,8.82,0,0,1,2.42,4.17.5.5,0,1,1-1,.16,8,8,0,0,0-2.19-3.67A11.27,11.27,0,0,0,102.89,98a3.51,3.51,0,0,0-3-.48,3.22,3.22,0,0,0-1.82,1.94,6.55,6.55,0,0,0-.29,2.9,12.73,12.73,0,0,0,6.69,9.94.54.54,0,0,1,.44.1l.38.31a.5.5,0,0,1,.12.65A.52.52,0,0,1,105,113.63Z" fill="#231f20"></path><path d="M111.41,123s-5.41-.85-8.33-4.05c0,0,1.39,8,9.71,9.57Z" fill="#231f20"></path><path d="M112.79,129h-.09c-8.56-1.57-10.1-9.89-10.12-10a.51.51,0,0,1,.28-.54.49.49,0,0,1,.58.11c2.77,3,8,3.89,8,3.9a.5.5,0,0,1,.41.37l1.39,5.52a.51.51,0,0,1-.12.46A.49.49,0,0,1,112.79,129ZM104,120.5a11.39,11.39,0,0,0,8.07,7.38L111,123.45A18,18,0,0,1,104,120.5Z" fill="#231f20"></path><ellipse cx="115.09" cy="94.67" rx="2.2" ry="0.86" transform="translate(17.74 207.5) rotate(-88.65)" fill="#231f20"></ellipse><path d="M185.84,181.61c6.76-8.06,14.33-18.31,9.48-29.43-.47-1.06-1.31-2.21-2.46-2.13a3.29,3.29,0,0,0-1.36.55l-4.2,2.56c.13-1.15-1.32-2-2.44-1.65a5.12,5.12,0,0,0-2.56,2.23c-4.33,6.17-7.14,12-6.89,19.63" fill="#fff"></path><path d="M185.83,182.11a.51.51,0,0,1-.32-.12.49.49,0,0,1-.06-.7c7-8.35,14.1-18.16,9.41-28.91-.2-.45-.9-1.9-2-1.83a2.86,2.86,0,0,0-1.13.48l-4.2,2.56a.49.49,0,0,1-.53,0,.5.5,0,0,1-.23-.47.88.88,0,0,0-.35-.77A1.66,1.66,0,0,0,185,152a4.69,4.69,0,0,0-2.29,2c-3.69,5.25-7.06,11.22-6.8,19.32a.5.5,0,0,1-.48.52.52.52,0,0,1-.52-.48c-.27-8.4,3.2-14.55,7-19.93a5.53,5.53,0,0,1,2.84-2.44,2.69,2.69,0,0,1,2.37.56,2,2,0,0,1,.57.77l3.57-2.17a3.68,3.68,0,0,1,1.58-.63c1.16-.09,2.24.8,3,2.43,5.32,12.22-4.36,23.75-9.56,30A.5.5,0,0,1,185.83,182.11Z" fill="#231f20"></path><path d="M182.3,160.5,189.56,138l2.26.64-4.57,22.25S184,164,182.3,160.5Z" fill="#231f20"></path><path d="M184.52,162.63a2.28,2.28,0,0,1-.45,0,3.1,3.1,0,0,1-2.22-1.87.5.5,0,0,1,0-.38l7.27-22.53a.48.48,0,0,1,.61-.33l2.26.64a.49.49,0,0,1,.35.58L187.74,161a.52.52,0,0,1-.14.25A5.11,5.11,0,0,1,184.52,162.63Zm-1.68-2.18a2,2,0,0,0,1.4,1.16,3.67,3.67,0,0,0,2.56-1L191.24,139l-1.35-.39Z" fill="#231f20"></path><path d="M173.28,168.37,154.41,203s-5.54-59.15-18.71-67.7-36.53-9-56.37.62c-15.82,7.64-20.89,82.67-17.75,113.84h79.23L140.05,236s4.88,14.12,19.15,10.7,30.93-70.46,30.93-70.46Z" fill="#68e1fd"></path><path d="M140.05,236.45a.51.51,0,0,1-.42-.23c-9-13.45-14.25-52.87-14.47-54.55a.5.5,0,0,1,.43-.56.51.51,0,0,1,.56.43c0,.41,5.47,40.87,14.32,54.13a.5.5,0,0,1-.14.69A.49.49,0,0,1,140.05,236.45Z" fill="#231f20"></path><path d="M237.84,102.47a32.56,32.56,0,0,0,65.12,0H270.4V69.91A32.56,32.56,0,0,0,237.84,102.47Z" fill="#68e1fd"></path><path d="M275.66,65.1V97.67h32.57A32.57,32.57,0,0,0,275.66,65.1Z" fill="#e6e7e8"></path><rect x="295.25" y="186.36" width="21" height="18.46" fill="#68e1fd"></rect><rect x="304.27" y="184.45" width="2.44" height="3.71" fill="#e6e7e8"></rect><path d="M305.51,192.31h-6.37a.51.51,0,0,1-.5-.5.5.5,0,0,1,.5-.5h6.37a.5.5,0,0,1,.5.5A.51.51,0,0,1,305.51,192.31Z" fill="#fff"></path><path d="M310.39,196.27H299.14a.51.51,0,0,1-.5-.5.5.5,0,0,1,.5-.5h11.25a.5.5,0,0,1,.5.5A.51.51,0,0,1,310.39,196.27Z" fill="#fff"></path><path d="M313,192.43h-4.69a.5.5,0,0,1-.5-.5.5.5,0,0,1,.5-.5H313a.5.5,0,0,1,.5.5A.5.5,0,0,1,313,192.43Z" fill="#fff"></path><path d="M223.45,74h-11.1a.46.46,0,0,1-.47-.46.47.47,0,0,1,.47-.46h11.1a.47.47,0,0,1,.46.46A.46.46,0,0,1,223.45,74Z" fill="#d1d3d4"></path><path d="M227.63,74h-2.11a.45.45,0,0,1-.46-.46.46.46,0,0,1,.46-.46h2.11a.47.47,0,0,1,.46.46A.46.46,0,0,1,227.63,74Z" fill="#d1d3d4"></path><path d="M228.62,80.63H212.25a.47.47,0,0,1-.46-.46.46.46,0,0,1,.46-.46h16.37a.45.45,0,0,1,.46.46A.46.46,0,0,1,228.62,80.63Z" fill="#d1d3d4"></path><path d="M217.62,87.3h-5.31a.47.47,0,0,1,0-.93h5.31a.47.47,0,0,1,0,.93Z" fill="#d1d3d4"></path><path d="M230.37,87.06h-9.46a.46.46,0,0,1-.46-.46.45.45,0,0,1,.46-.46h9.46a.46.46,0,0,1,.46.46A.47.47,0,0,1,230.37,87.06Z" fill="#d1d3d4"></path><path d="M223.45,74h-11.1a.46.46,0,0,1-.47-.46.47.47,0,0,1,.47-.46h11.1a.47.47,0,0,1,.46.46A.46.46,0,0,1,223.45,74Z" fill="none" stroke="#e6e7e8" stroke-linecap="round" stroke-linejoin="round"></path><path d="M227.63,74h-2.11a.45.45,0,0,1-.46-.46.46.46,0,0,1,.46-.46h2.11a.47.47,0,0,1,.46.46A.46.46,0,0,1,227.63,74Z" fill="none" stroke="#e6e7e8" stroke-linecap="round" stroke-linejoin="round"></path><path d="M228.62,80.63H212.25a.47.47,0,0,1-.46-.46.46.46,0,0,1,.46-.46h16.37a.45.45,0,0,1,.46.46A.46.46,0,0,1,228.62,80.63Z" fill="none" stroke="#e6e7e8" stroke-linecap="round" stroke-linejoin="round"></path><path d="M217.62,87.3h-5.31a.47.47,0,0,1,0-.93h5.31a.47.47,0,0,1,0,.93Z" fill="none" stroke="#e6e7e8" stroke-linecap="round" stroke-linejoin="round"></path><path d="M230.37,87.06h-9.46a.46.46,0,0,1-.46-.46.45.45,0,0,1,.46-.46h9.46a.46.46,0,0,1,.46.46A.47.47,0,0,1,230.37,87.06Z" fill="none" stroke="#e6e7e8" stroke-linecap="round" stroke-linejoin="round"></path><path d="M294.71,149.23h-54a.5.5,0,0,1,0-1h54a.5.5,0,0,1,0,1Z" fill="#d1d3d4"></path><path d="M283.07,161.21H241.53a.5.5,0,0,1-.5-.5.5.5,0,0,1,.5-.5h41.54a.5.5,0,0,1,.5.5A.5.5,0,0,1,283.07,161.21Z" fill="#d1d3d4"></path><path d="M288.89,172.76H240.73a.51.51,0,0,1-.5-.5.5.5,0,0,1,.5-.5h48.16a.5.5,0,0,1,.5.5A.5.5,0,0,1,288.89,172.76Z" fill="#d1d3d4"></path><path d="M296.56,160.64h-7.67a.5.5,0,0,1-.5-.5.5.5,0,0,1,.5-.5h7.67a.5.5,0,0,1,.5.5A.5.5,0,0,1,296.56,160.64Z" fill="#d1d3d4"></path><path d="M212.38,111.3H164.73a.5.5,0,0,1-.5-.5V71.72a.5.5,0,0,1,1,0V110.3h47.15a.5.5,0,0,1,.5.5A.5.5,0,0,1,212.38,111.3Z" fill="#e6e7e8"></path><path d="M164.73,111.3a.51.51,0,0,1-.34-.14.5.5,0,0,1,0-.7l20-21.45a.51.51,0,0,1,.79.08l4.41,7.06,13.86-15.23a.49.49,0,0,1,.7,0,.5.5,0,0,1,0,.71l-14.3,15.72a.52.52,0,0,1-.42.17.49.49,0,0,1-.37-.24l-4.42-7.07-19.57,21A.54.54,0,0,1,164.73,111.3Z" fill="#e6e7e8"></path></g></svg>